<?xml version="1.0" encoding="UTF-8"?>
<!DOCTYPE svg PUBLIC "-//W3C//DTD SVG 1.1//EN" "http://www.w3.org/Graphics/SVG/1.1/DTD/svg11.dtd">
<svg xmlns="http://www.w3.org/2000/svg" version="1.1" width="150px" height="150px" style="shape-rendering:geometricPrecision; text-rendering:geometricPrecision; image-rendering:optimizeQuality; fill-rule:evenodd; clip-rule:evenodd" xmlns:xlink="http://www.w3.org/1999/xlink">
<g><path style="opacity:0.978" fill="#79c682" d="M 108.5,138.5 C 108.333,127.162 108.5,115.828 109,104.5C 110.887,102.974 111.887,100.974 112,98.5C 112.775,87.9765 112.608,77.4765 111.5,67C 114.799,60.5969 116.799,53.7635 117.5,46.5C 124.086,43.6585 127.42,38.6585 127.5,31.5C 121.498,32.6731 115.832,34.6731 110.5,37.5C 110.778,35.6536 110.111,34.3202 108.5,33.5C 108.105,38.0126 105.771,39.5126 101.5,38C 100.91,36.4905 100.244,34.9905 99.5,33.5C 97.8888,34.3202 97.2222,35.6536 97.5,37.5C 96.1266,37.6567 94.7932,37.49 93.5,37C 89.3647,33.6797 84.698,31.8463 79.5,31.5C 80.2858,38.3942 83.9524,43.0608 90.5,45.5C 90.5826,51.467 92.416,56.8004 96,61.5C 96.6667,66.8333 96.6667,72.1667 96,77.5C 93.3173,83.1767 88.8173,86.01 82.5,86C 72.1667,86.6667 61.8333,86.6667 51.5,86C 46.0227,84.6785 41.1894,82.1785 37,78.5C 36.0396,85.7221 39.2063,90.0554 46.5,91.5C 45.1159,94.3337 44.4492,97.3337 44.5,100.5C 46.2808,113.66 45.6141,126.66 42.5,139.5C 40.0326,139.245 38.0326,138.245 36.5,136.5C 35.656,134.241 33.9893,133.241 31.5,133.5C 31.1898,131.856 30.1898,130.856 28.5,130.5C 26.5956,130.262 25.2623,129.262 24.5,127.5C 24.5123,124.858 23.179,123.525 20.5,123.5C 19.5,123.167 18.8333,122.5 18.5,121.5C 18.4456,119.368 17.4456,118.035 15.5,117.5C 14.2583,113.345 12.2583,109.678 9.5,106.5C 9.7271,104.067 8.7271,102.401 6.5,101.5C 6.5,100.833 6.5,100.167 6.5,99.5C 6.5848,96.3511 5.5848,93.6845 3.5,91.5C 3.5,90.5 3.5,89.5 3.5,88.5C 3.66501,85.1501 3.49834,81.8168 3,78.5C 2.72158,77.5842 2.22158,76.9175 1.5,76.5C 1.1773,70.3638 1.84397,64.3638 3.5,58.5C 5.33859,56.3465 6.33859,53.6799 6.5,50.5C 7.73623,48.351 8.73623,46.0177 9.5,43.5C 11.2277,37.707 14.2277,32.707 18.5,28.5C 22.272,25.9059 25.9387,23.0726 29.5,20C 30.2524,19.3292 30.5858,18.4959 30.5,17.5C 48.6094,4.13664 68.9427,-0.0300222 91.5,5C 132.565,19.2644 150.065,48.0977 144,91.5C 138.45,111.944 126.616,127.61 108.5,138.5 Z"/></g>
<g><path style="opacity:1" fill="#f4faf5" d="M 83.5,7.5 C 84.7733,8.07683 84.7733,8.7435 83.5,9.5C 79.5662,11.1202 76.2329,13.4535 73.5,16.5C 75.0093,18.1804 76.3427,20.0138 77.5,22C 75.3828,23.7705 73.0494,25.2705 70.5,26.5C 68.9744,31.8526 65.8078,35.8526 61,38.5C 56.4957,38.0618 52.329,36.7285 48.5,34.5C 41.2779,38.2793 38.9446,36.2793 41.5,28.5C 37.1018,28.9226 32.7684,29.4226 28.5,30C 37.4276,26.0384 46.4276,22.7051 55.5,20C 51.8333,22.1667 48.1667,24.3333 44.5,26.5C 43.6143,27.325 43.281,28.325 43.5,29.5C 47.8956,27.641 52.2289,25.4744 56.5,23C 61.166,21.7675 65.8327,20.6009 70.5,19.5C 70.5,18.5 70.5,17.5 70.5,16.5C 65.8922,17.9225 61.2255,18.7559 56.5,19C 65.39,14.7069 74.39,10.8736 83.5,7.5 Z"/></g>
<g><path style="opacity:0.443" fill="#9bd4a1" d="M 30.5,17.5 C 30.5858,18.4959 30.2524,19.3292 29.5,20C 25.9387,23.0726 22.272,25.9059 18.5,28.5C 21.8744,24.1245 25.8744,20.4578 30.5,17.5 Z"/></g>
<g><path style="opacity:0.992" fill="#fbfdfb" d="M 108.5,138.5 C 105.881,138.925 103.547,139.925 101.5,141.5C 100.694,132.577 100.194,123.577 100,114.5C 99.0853,115.328 98.4186,116.328 98,117.5C 97.5003,125.827 97.3336,134.16 97.5,142.5C 95.412,143.939 93.0786,144.606 90.5,144.5C 89.5064,135.348 89.1731,126.015 89.5,116.5C 83.0984,116.182 76.7651,116.182 70.5,116.5C 67.7419,124.683 63.9086,132.349 59,139.5C 58.187,141.436 57.687,143.436 57.5,145.5C 54.6458,144.795 51.9791,143.795 49.5,142.5C 51.5908,139.835 53.4242,136.835 55,133.5C 55.6667,132.167 55.6667,130.833 55,129.5C 51.7623,133.309 49.5956,137.642 48.5,142.5C 46.0326,142.245 44.0326,141.245 42.5,139.5C 45.6141,126.66 46.2808,113.66 44.5,100.5C 44.4492,97.3337 45.1159,94.3337 46.5,91.5C 39.2063,90.0554 36.0396,85.7221 37,78.5C 41.1894,82.1785 46.0227,84.6785 51.5,86C 61.8333,86.6667 72.1667,86.6667 82.5,86C 88.8173,86.01 93.3173,83.1767 96,77.5C 96.6667,72.1667 96.6667,66.8333 96,61.5C 92.416,56.8004 90.5826,51.467 90.5,45.5C 83.9524,43.0608 80.2858,38.3942 79.5,31.5C 84.698,31.8463 89.3647,33.6797 93.5,37C 94.7932,37.49 96.1266,37.6567 97.5,37.5C 97.2222,35.6536 97.8888,34.3202 99.5,33.5C 100.244,34.9905 100.91,36.4905 101.5,38C 105.771,39.5126 108.105,38.0126 108.5,33.5C 110.111,34.3202 110.778,35.6536 110.5,37.5C 115.832,34.6731 121.498,32.6731 127.5,31.5C 127.42,38.6585 124.086,43.6585 117.5,46.5C 116.799,53.7635 114.799,60.5969 111.5,67C 112.608,77.4765 112.775,87.9765 112,98.5C 111.887,100.974 110.887,102.974 109,104.5C 108.5,115.828 108.333,127.162 108.5,138.5 Z"/></g>
<g><path style="opacity:1" fill="#8ccd93" d="M 59.5,31.5 C 60.5,31.5 61.5,31.5 62.5,31.5C 62.5,32.8333 62.5,34.1667 62.5,35.5C 61.5,35.5 60.5,35.5 59.5,35.5C 59.5,34.1667 59.5,32.8333 59.5,31.5 Z"/></g>
<g><path style="opacity:0.22" fill="#bbe1be" d="M 9.5,43.5 C 8.73623,46.0177 7.73623,48.351 6.5,50.5C 6.16628,47.509 7.16628,45.1757 9.5,43.5 Z"/></g>
<g><path style="opacity:1" fill="#eaf6eb" d="M 83.5,48.5 C 86.0414,49.6228 86.0414,50.9561 83.5,52.5C 82.3744,51.1916 82.3744,49.8583 83.5,48.5 Z"/></g>
<g><path style="opacity:1" fill="#edf7ee" d="M 30.5,40.5 C 36.2989,40.7625 38.1323,43.4292 36,48.5C 33.7664,50.6998 31.2664,52.5331 28.5,54C 33.2855,57.8864 33.7855,62.3864 30,67.5C 25.105,71.0157 19.605,72.349 13.5,71.5C 15.7298,62.2053 19.7298,53.7053 25.5,46C 24.2161,45.3162 23.0495,45.4829 22,46.5C 21.5172,45.552 21.3505,44.552 21.5,43.5C 24.7846,43.0719 27.7846,42.0719 30.5,40.5 Z"/></g>
<g><path style="opacity:1" fill="#82c989" d="M 28.5,43.5 C 30.5,43.5 32.5,43.5 34.5,43.5C 33.732,49.5351 30.3987,52.2018 24.5,51.5C 26.9045,49.3577 28.2378,46.691 28.5,43.5 Z"/></g>
<g><path style="opacity:1" fill="#7ec786" d="M 21.5,55.5 C 31.8478,56.3759 33.1811,60.5426 25.5,68C 22.6074,69.1488 19.6074,69.6488 16.5,69.5C 17.5923,64.6445 19.259,59.9779 21.5,55.5 Z"/></g>
<g><path style="opacity:0.847" fill="#bde2c0" d="M 6.5,50.5 C 6.33859,53.6799 5.33859,56.3465 3.5,58.5C 3.60315,55.3642 4.60315,52.6975 6.5,50.5 Z"/></g>
<g><path style="opacity:1" fill="#ebf6ec" d="M 73.5,43.5 C 75.2252,43.8425 75.7252,44.8425 75,46.5C 72.8333,50 70.6667,53.5 68.5,57C 73.0484,55.8957 74.5484,57.729 73,62.5C 70.6955,69.0583 66.5288,71.3916 60.5,69.5C 64.3327,60.5013 68.666,51.8347 73.5,43.5 Z"/></g>
<g><path style="opacity:1" fill="#acdbb1" d="M 50.5,57.5 C 50.56,56.9569 50.8933,56.6236 51.5,56.5C 52.1818,57.2427 52.8485,57.9094 53.5,58.5C 52.8783,59.6266 52.045,60.6266 51,61.5C 51.3308,59.9813 51.1641,58.648 50.5,57.5 Z"/></g>
<g><path style="opacity:1" fill="#83c98b" d="M 69.5,58.5 C 70.4972,58.4701 71.1639,58.9701 71.5,60C 70.8306,64.2445 68.4973,66.7445 64.5,67.5C 65.3742,64.0872 67.0408,61.0872 69.5,58.5 Z"/></g>
<g><path style="opacity:1" fill="#ecf6ed" d="M 50.5,57.5 C 51.1641,58.648 51.3308,59.9813 51,61.5C 52.045,60.6266 52.8783,59.6266 53.5,58.5C 55.1294,56.9397 56.296,57.273 57,59.5C 62.709,57.6223 63.0423,58.9556 58,63.5C 57.3131,65.5675 57.4798,67.5675 58.5,69.5C 57.675,70.3857 56.675,70.719 55.5,70.5C 55.6633,68.1432 55.4966,65.8098 55,63.5C 53.2567,65.3211 51.7567,67.3211 50.5,69.5C 50.1667,69 49.8333,68.5 49.5,68C 50.5038,66.2017 51.0038,64.3684 51,62.5C 49.0014,64.4935 47.5014,66.8268 46.5,69.5C 43.5462,71.1475 41.3795,70.4808 40,67.5C 33.9114,70.7468 32.2447,69.0801 35,62.5C 36.7034,58.0748 39.87,55.7414 44.5,55.5C 44.359,59.0927 43.6924,62.5927 42.5,66C 42.5093,67.4038 43.0093,68.5704 44,69.5C 45.3987,65.0327 47.5654,61.0327 50.5,57.5 Z"/></g>
<g><path style="opacity:1" fill="#86cb8e" d="M 40.5,57.5 C 42.2252,57.8425 42.7252,58.8425 42,60.5C 41.0695,63.3616 39.4029,65.695 37,67.5C 36.1822,63.4695 37.3489,60.1361 40.5,57.5 Z"/></g>
<g><path style="opacity:1" fill="#e4f3e6" d="M 79.5,56.5 C 80.3764,56.3691 81.0431,56.7025 81.5,57.5C 78.7215,61.607 76.3882,65.9404 74.5,70.5C 73.3861,69.277 73.2195,67.9437 74,66.5C 75.5918,62.9789 77.4251,59.6456 79.5,56.5 Z"/></g>
<g><path style="opacity:0.124" fill="#c0e4c3" d="M 1.5,76.5 C 2.22158,76.9175 2.72158,77.5842 3,78.5C 3.49834,81.8168 3.66501,85.1501 3.5,88.5C 1.75006,84.8171 1.08339,80.8171 1.5,76.5 Z"/></g>
<g><path style="opacity:1" fill="#87cb8e" d="M 59.5,88.5 C 60.8333,88.5 62.1667,88.5 63.5,88.5C 63.5,89.5 63.5,90.5 63.5,91.5C 62.1667,91.5 60.8333,91.5 59.5,91.5C 59.5,90.5 59.5,89.5 59.5,88.5 Z"/></g>
<g><path style="opacity:1" fill="#98d29e" d="M 65.5,88.5 C 70.8333,89.5 70.8333,90.5 65.5,91.5C 65.5,90.5 65.5,89.5 65.5,88.5 Z"/></g>
<g><path style="opacity:1" fill="#b9e1bd" d="M 54.5,90.5 C 55.675,90.281 56.675,90.6143 57.5,91.5C 55.9483,92.7979 54.9483,92.4646 54.5,90.5 Z"/></g>
<g><path style="opacity:1" fill="#85ca8d" d="M 63.5,93.5 C 65.924,93.1924 68.2573,93.5258 70.5,94.5C 70.2907,95.086 69.9574,95.586 69.5,96C 67.5273,96.4955 65.5273,96.6621 63.5,96.5C 63.5,95.5 63.5,94.5 63.5,93.5 Z"/></g>
<g><path style="opacity:0.178" fill="#cfead1" d="M 3.5,91.5 C 5.5848,93.6845 6.5848,96.3511 6.5,99.5C 4.60315,97.3025 3.60315,94.6358 3.5,91.5 Z"/></g>
<g><path style="opacity:1" fill="#9bd3a1" d="M 56.5,93.5 C 57.9778,93.238 59.3112,93.5713 60.5,94.5C 58.5365,97.1939 57.2032,96.8606 56.5,93.5 Z"/></g>
<g><path style="opacity:0.098" fill="#cde9cf" d="M 6.5,101.5 C 8.7271,102.401 9.7271,104.067 9.5,106.5C 7.74973,105.341 6.74973,103.674 6.5,101.5 Z"/></g>
<g><path style="opacity:0.165" fill="#c9e7cc" d="M 9.5,106.5 C 12.2583,109.678 14.2583,113.345 15.5,117.5C 13.7775,115.747 12.2775,113.747 11,111.5C 9.99136,109.975 9.49136,108.308 9.5,106.5 Z"/></g>
<g><path style="opacity:0.972" fill="#79c582" d="M 90.5,144.5 C 85.2107,145.967 79.7107,146.967 74,147.5C 68.4831,146.911 62.9831,146.245 57.5,145.5C 57.687,143.436 58.187,141.436 59,139.5C 63.9086,132.349 67.7419,124.683 70.5,116.5C 76.7651,116.182 83.0984,116.182 89.5,116.5C 89.1731,126.015 89.5064,135.348 90.5,144.5 Z"/></g>
<g><path style="opacity:0.169" fill="#d6edd8" d="M 15.5,117.5 C 17.4456,118.035 18.4456,119.368 18.5,121.5C 17.0256,120.564 16.0256,119.23 15.5,117.5 Z"/></g>
<g><path style="opacity:0.934" fill="#81c989" d="M 101.5,141.5 C 100.292,142.234 98.9587,142.567 97.5,142.5C 97.3336,134.16 97.5003,125.827 98,117.5C 98.4186,116.328 99.0853,115.328 100,114.5C 100.194,123.577 100.694,132.577 101.5,141.5 Z"/></g>
<g><path style="opacity:0.906" fill="#aedcb2" d="M 20.5,123.5 C 23.179,123.525 24.5123,124.858 24.5,127.5C 22.8333,126.5 21.5,125.167 20.5,123.5 Z"/></g>
<g><path style="opacity:0.486" fill="#c4e5c6" d="M 28.5,130.5 C 30.1898,130.856 31.1898,131.856 31.5,133.5C 29.8102,133.144 28.8102,132.144 28.5,130.5 Z"/></g>
<g><path style="opacity:1" fill="#87cb8e" d="M 49.5,142.5 C 49.1667,142.5 48.8333,142.5 48.5,142.5C 49.5956,137.642 51.7623,133.309 55,129.5C 55.6667,130.833 55.6667,132.167 55,133.5C 53.4242,136.835 51.5908,139.835 49.5,142.5 Z"/></g>
<g><path style="opacity:0.918" fill="#abdbaf" d="M 31.5,133.5 C 33.9893,133.241 35.656,134.241 36.5,136.5C 34.5659,135.89 32.8993,134.89 31.5,133.5 Z"/></g>
</svg>
